#N canvas 488 101 450 300 10;
#X obj 119 167 samphold~;
#X text 119 45 crusty DAC emulation;
#X obj 170 136 phasor~ 24000;
#X obj 119 106 lop~ 12000;
#X obj 119 71 inlet~;
#X obj 119 255 outlet~;
#X obj 119 224 e_softclip;
#X obj 119 196 *~ 1.5;
#X connect 0 0 7 0;
#X connect 2 0 0 1;
#X connect 3 0 0 0;
#X connect 4 0 3 0;
#X connect 6 0 5 0;
#X connect 7 0 6 0;
