#N canvas 319 117 812 543 10;
#X obj 75 -90 r notes;
#X obj 75 -50 poly 4 1, f 10;
#X obj 75 -10 pack 0 0 0;
#X obj 75 30 route 1 2 3 4;
#X obj 79 343 +~;
#X obj 79 468 throw~ outL;
#X obj 154 468 throw~ outR;
#N canvas 9 22 1631 950 organelle_knobs_screen 0;
#X obj 215 314 r knob1;
#X obj 215 389 pack 0 0;
#X msg 215 412 \$2 \$1;
#X obj 516 388 pack 0 0;
#X msg 516 411 \$2 \$1;
#X obj 516 314 r knob2;
#X obj 864 388 pack 0 0;
#X msg 864 411 \$2 \$1;
#X obj 1135 386 pack 0 0;
#X msg 1135 409 \$2 \$1;
#X obj 864 313 r knob3;
#X obj 1135 311 r knob4;
#X obj 260 365 r page_select;
#X obj 561 364 r page_select;
#X obj 909 365 r page_select;
#X obj 1180 362 r page_select;
#X text 145 508 Page 0;
#X text 146 468 Page 1;
#N canvas 0 22 1138 857 knob_move_detector 0;
#X obj 380 395 -, f 5;
#X obj 380 423 abs;
#X obj 206 148 sel 1;
#X obj 380 112 inlet;
#X obj 308 289 outlet;
#N canvas 0 22 918 613 counter 0;
#X obj 157 104 bang;
#X msg 293 124 0;
#X obj 197 162 + 1;
#X obj 157 162 0;
#X msg 157 251 1;
#X msg 189 251 0;
#X obj 177 282 change;
#X obj 132 36 inlet;
#X obj 117 498 outlet;
#X obj 157 73 inlet;
#X text 306 161 This section counts 5 modifications of input and then
let pass the last one. It creates a small delay between 2 read values
of the knob \, which makes it easier to compare.;
#X obj 132 306 spigot 0;
#X obj 157 210 sel 1 5;
#X obj 117 410 f;
#X connect 0 0 3 0;
#X connect 1 0 3 0;
#X connect 2 0 3 1;
#X connect 3 0 2 0;
#X connect 3 0 12 0;
#X connect 4 0 6 0;
#X connect 5 0 6 0;
#X connect 6 0 11 1;
#X connect 7 0 11 0;
#X connect 9 0 0 0;
#X connect 11 0 13 1;
#X connect 12 0 4 0;
#X connect 12 1 5 0;
#X connect 12 1 13 0;
#X connect 12 1 1 0;
#X connect 12 2 5 0;
#X connect 13 0 8 0;
#X restore 380 328 pd counter;
#X text 434 421 Turns difference into absolute number;
#X text 431 446 If difference is greater than x \, then it's human
movement so let pass the data through the gate [spigot];
#X obj 380 289 t f f f, f 37;
#X text 433 113 Receive knob value;
#X obj 605 99 r page_select;
#X obj 605 124 bang;
#X text 648 130 Reset when page changes;
#X text 376 484 This value might have to be adjusted for better performance
, f 31;
#X text 479 348 The counter maximum might have to be adjusted for better
performance, f 41;
#X obj 380 261 spigot 1;
#X obj 308 260 spigot 0;
#X obj 605 146 t b b;
#X msg 637 171 0;
#X msg 605 169 1;
#X obj 172 182 t b b;
#X msg 199 204 0;
#X msg 172 204 1;
#X obj 380 452 > 0.005;
#X text 455 328 Creates a delay between reading values of knob;
#X text 371 25 The organelle's knobs seems to update values every now
and then (without touching the knobs) and this can be problematic when
switching from one page to the other. This patch is to make sure the
knob movement comes from a human, f 78;
#X connect 0 0 1 0;
#X connect 1 0 23 0;
#X connect 2 0 20 0;
#X connect 3 0 15 0;
#X connect 3 0 16 0;
#X connect 5 0 0 0;
#X connect 8 0 5 0;
#X connect 8 1 5 1;
#X connect 8 2 0 1;
#X connect 10 0 11 0;
#X connect 11 0 17 0;
#X connect 15 0 8 0;
#X connect 16 0 4 0;
#X connect 17 0 19 0;
#X connect 17 1 18 0;
#X connect 18 0 16 1;
#X connect 19 0 15 1;
#X connect 20 0 22 0;
#X connect 20 1 21 0;
#X connect 21 0 15 1;
#X connect 22 0 16 1;
#X connect 23 0 2 0;
#X restore 1135 338 pd knob_move_detector;
#X obj 216 511 s p0_k1;
#X obj 241 472 s p1_k1;
#X text 289 503 Nomenclature : [s p0_k1] = send page 0 \, knob 1,
f 25;
#X text 294 466 Nomenclature : [s p1_k1] = send page 1 \, knob 1,
f 25;
#X obj 516 511 s p0_k2;
#X obj 541 471 s p1_k2;
#X obj 864 517 s p0_k3;
#X obj 889 472 s p1_k3;
#X text 218 286 Knob 1;
#X text 545 280 Knob 2;
#X text 868 273 Knob 3;
#X text 1146 268 Knob 4;
#X obj 1135 514 s p0_k4;
#X obj 1160 478 s p1_k4;
#N canvas 0 22 1138 857 knob_move_detector 0;
#X obj 380 395 -, f 5;
#X obj 380 423 abs;
#X obj 206 148 sel 1;
#X obj 380 112 inlet;
#X obj 308 289 outlet;
#N canvas 0 22 918 613 counter 0;
#X obj 157 104 bang;
#X msg 293 124 0;
#X obj 197 162 + 1;
#X obj 157 162 0;
#X msg 157 251 1;
#X msg 189 251 0;
#X obj 177 282 change;
#X obj 132 36 inlet;
#X obj 117 498 outlet;
#X obj 157 73 inlet;
#X text 306 161 This section counts 5 modifications of input and then
let pass the last one. It creates a small delay between 2 read values
of the knob \, which makes it easier to compare.;
#X obj 132 306 spigot 0;
#X obj 157 210 sel 1 5;
#X obj 117 410 f;
#X connect 0 0 3 0;
#X connect 1 0 3 0;
#X connect 2 0 3 1;
#X connect 3 0 2 0;
#X connect 3 0 12 0;
#X connect 4 0 6 0;
#X connect 5 0 6 0;
#X connect 6 0 11 1;
#X connect 7 0 11 0;
#X connect 9 0 0 0;
#X connect 11 0 13 1;
#X connect 12 0 4 0;
#X connect 12 1 5 0;
#X connect 12 1 13 0;
#X connect 12 1 1 0;
#X connect 12 2 5 0;
#X connect 13 0 8 0;
#X restore 380 328 pd counter;
#X text 434 421 Turns difference into absolute number;
#X text 431 446 If difference is greater than x \, then it's human
movement so let pass the data through the gate [spigot];
#X obj 380 289 t f f f, f 37;
#X text 433 113 Receive knob value;
#X obj 605 99 r page_select;
#X obj 605 124 bang;
#X text 648 130 Reset when page changes;
#X text 376 484 This value might have to be adjusted for better performance
, f 31;
#X text 479 348 The counter maximum might have to be adjusted for better
performance, f 41;
#X obj 380 261 spigot 1;
#X obj 308 260 spigot 0;
#X obj 605 146 t b b;
#X msg 637 171 0;
#X msg 605 169 1;
#X obj 172 182 t b b;
#X msg 199 204 0;
#X msg 172 204 1;
#X obj 380 452 > 0.005;
#X text 455 328 Creates a delay between reading values of knob;
#X text 371 25 The organelle's knobs seems to update values every now
and then (without touching the knobs) and this can be problematic when
switching from one page to the other. This patch is to make sure the
knob movement comes from a human, f 78;
#X connect 0 0 1 0;
#X connect 1 0 23 0;
#X connect 2 0 20 0;
#X connect 3 0 15 0;
#X connect 3 0 16 0;
#X connect 5 0 0 0;
#X connect 8 0 5 0;
#X connect 8 1 5 1;
#X connect 8 2 0 1;
#X connect 10 0 11 0;
#X connect 11 0 17 0;
#X connect 15 0 8 0;
#X connect 16 0 4 0;
#X connect 17 0 19 0;
#X connect 17 1 18 0;
#X connect 18 0 16 1;
#X connect 19 0 15 1;
#X connect 20 0 22 0;
#X connect 20 1 21 0;
#X connect 21 0 15 1;
#X connect 22 0 16 1;
#X connect 23 0 2 0;
#X restore 864 338 pd knob_move_detector;
#N canvas 0 22 1138 857 knob_move_detector 0;
#X obj 380 395 -, f 5;
#X obj 380 423 abs;
#X obj 206 148 sel 1;
#X obj 380 112 inlet;
#X obj 308 289 outlet;
#N canvas 0 22 918 613 counter 0;
#X obj 157 104 bang;
#X msg 293 124 0;
#X obj 197 162 + 1;
#X obj 157 162 0;
#X msg 157 251 1;
#X msg 189 251 0;
#X obj 177 282 change;
#X obj 132 36 inlet;
#X obj 117 498 outlet;
#X obj 157 73 inlet;
#X text 306 161 This section counts 5 modifications of input and then
let pass the last one. It creates a small delay between 2 read values
of the knob \, which makes it easier to compare.;
#X obj 132 306 spigot 0;
#X obj 157 210 sel 1 5;
#X obj 117 410 f;
#X connect 0 0 3 0;
#X connect 1 0 3 0;
#X connect 2 0 3 1;
#X connect 3 0 2 0;
#X connect 3 0 12 0;
#X connect 4 0 6 0;
#X connect 5 0 6 0;
#X connect 6 0 11 1;
#X connect 7 0 11 0;
#X connect 9 0 0 0;
#X connect 11 0 13 1;
#X connect 12 0 4 0;
#X connect 12 1 5 0;
#X connect 12 1 13 0;
#X connect 12 1 1 0;
#X connect 12 2 5 0;
#X connect 13 0 8 0;
#X restore 380 328 pd counter;
#X text 434 421 Turns difference into absolute number;
#X text 431 446 If difference is greater than x \, then it's human
movement so let pass the data through the gate [spigot];
#X obj 380 289 t f f f, f 37;
#X text 433 113 Receive knob value;
#X obj 605 99 r page_select;
#X obj 605 124 bang;
#X text 648 130 Reset when page changes;
#X text 376 484 This value might have to be adjusted for better performance
, f 31;
#X text 479 348 The counter maximum might have to be adjusted for better
performance, f 41;
#X obj 380 261 spigot 1;
#X obj 308 260 spigot 0;
#X obj 605 146 t b b;
#X msg 637 171 0;
#X msg 605 169 1;
#X obj 172 182 t b b;
#X msg 199 204 0;
#X msg 172 204 1;
#X obj 380 452 > 0.005;
#X text 455 328 Creates a delay between reading values of knob;
#X text 371 25 The organelle's knobs seems to update values every now
and then (without touching the knobs) and this can be problematic when
switching from one page to the other. This patch is to make sure the
knob movement comes from a human, f 78;
#X connect 0 0 1 0;
#X connect 1 0 23 0;
#X connect 2 0 20 0;
#X connect 3 0 15 0;
#X connect 3 0 16 0;
#X connect 5 0 0 0;
#X connect 8 0 5 0;
#X connect 8 1 5 1;
#X connect 8 2 0 1;
#X connect 10 0 11 0;
#X connect 11 0 17 0;
#X connect 15 0 8 0;
#X connect 16 0 4 0;
#X connect 17 0 19 0;
#X connect 17 1 18 0;
#X connect 18 0 16 1;
#X connect 19 0 15 1;
#X connect 20 0 22 0;
#X connect 20 1 21 0;
#X connect 21 0 15 1;
#X connect 22 0 16 1;
#X connect 23 0 2 0;
#X restore 516 337 pd knob_move_detector;
#N canvas 0 22 1138 857 knob_move_detector 0;
#X obj 380 395 -, f 5;
#X obj 380 423 abs;
#X obj 206 148 sel 1;
#X obj 380 112 inlet;
#X obj 308 289 outlet;
#N canvas 0 22 918 613 counter 0;
#X obj 157 104 bang;
#X msg 293 124 0;
#X obj 197 162 + 1;
#X obj 157 162 0;
#X msg 157 251 1;
#X msg 189 251 0;
#X obj 177 282 change;
#X obj 132 36 inlet;
#X obj 117 498 outlet;
#X obj 157 73 inlet;
#X text 306 161 This section counts 5 modifications of input and then
let pass the last one. It creates a small delay between 2 read values
of the knob \, which makes it easier to compare.;
#X obj 132 306 spigot 0;
#X obj 157 210 sel 1 5;
#X obj 117 410 f;
#X connect 0 0 3 0;
#X connect 1 0 3 0;
#X connect 2 0 3 1;
#X connect 3 0 2 0;
#X connect 3 0 12 0;
#X connect 4 0 6 0;
#X connect 5 0 6 0;
#X connect 6 0 11 1;
#X connect 7 0 11 0;
#X connect 9 0 0 0;
#X connect 11 0 13 1;
#X connect 12 0 4 0;
#X connect 12 1 5 0;
#X connect 12 1 13 0;
#X connect 12 1 1 0;
#X connect 12 2 5 0;
#X connect 13 0 8 0;
#X restore 380 328 pd counter;
#X text 434 421 Turns difference into absolute number;
#X text 431 446 If difference is greater than x \, then it's human
movement so let pass the data through the gate [spigot];
#X obj 380 289 t f f f, f 37;
#X text 433 113 Receive knob value;
#X obj 605 99 r page_select;
#X obj 605 124 bang;
#X text 648 130 Reset when page changes;
#X text 376 484 This value might have to be adjusted for better performance
, f 31;
#X text 479 348 The counter maximum might have to be adjusted for better
performance, f 41;
#X obj 380 261 spigot 1;
#X obj 308 260 spigot 0;
#X obj 605 146 t b b;
#X msg 637 171 0;
#X msg 605 169 1;
#X obj 172 182 t b b;
#X msg 199 204 0;
#X msg 172 204 1;
#X obj 380 452 > 0.005;
#X text 455 328 Creates a delay between reading values of knob;
#X text 371 25 The organelle's knobs seems to update values every now
and then (without touching the knobs) and this can be problematic when
switching from one page to the other. This patch is to make sure the
knob movement comes from a human, f 78;
#X connect 0 0 1 0;
#X connect 1 0 23 0;
#X connect 2 0 20 0;
#X connect 3 0 15 0;
#X connect 3 0 16 0;
#X connect 5 0 0 0;
#X connect 8 0 5 0;
#X connect 8 1 5 1;
#X connect 8 2 0 1;
#X connect 10 0 11 0;
#X connect 11 0 17 0;
#X connect 15 0 8 0;
#X connect 16 0 4 0;
#X connect 17 0 19 0;
#X connect 17 1 18 0;
#X connect 18 0 16 1;
#X connect 19 0 15 1;
#X connect 20 0 22 0;
#X connect 20 1 21 0;
#X connect 21 0 15 1;
#X connect 22 0 16 1;
#X connect 23 0 2 0;
#X restore 215 341 pd knob_move_detector;
#N canvas 0 62 1054 846 page_selection 0;
#X text 398 36 Page selection counter and Aux LED color;
#X obj 321 466 spigot 0;
#X obj 366 329 r page_select;
#X obj 321 174 r aux;
#X obj 366 435 t f b;
#X msg 393 467 0;
#X obj 270 571 f;
#X obj 270 509 sel 0;
#X obj 81 452 spigot 0;
#X obj 270 619 sel 1;
#N canvas 376 22 928 581 page_change 0;
#X text 239 82 Auxilary button input;
#X obj 445 425 send led;
#X msg 445 321 1;
#X obj 445 289 loadbang;
#X msg 408 322 0;
#X text 330 31 Parameter page select using auxilary button;
#X obj 300 153 sel 0;
#X text 237 132 note off (0) change pages;
#X obj 300 109 inlet;
#X obj 300 420 outlet;
#X obj 331 234 + 1;
#X msg 314 204 0;
#X obj 315 345 + 1;
#X obj 314 181 inlet;
#X obj 300 234 f 1;
#X text 510 426 Change auxilary's LED color (number from 1 to 2);
#X connect 2 0 1 0;
#X connect 3 0 4 0;
#X connect 3 0 2 0;
#X connect 4 0 9 0;
#X connect 6 0 14 0;
#X connect 8 0 6 0;
#X connect 10 0 14 1;
#X connect 11 0 14 0;
#X connect 12 0 1 0;
#X connect 13 0 11 0;
#X connect 14 0 10 0;
#X connect 14 0 12 0;
#X connect 14 0 9 0;
#X restore 81 713 pd page_change;
#X obj 81 745 s page_select;
#X obj 270 595 < 20;
#X obj 270 534 t b b;
#X obj 366 354 pipe 20;
#X obj 366 410 == 1;
#X obj 126 429 < 1;
#X connect 1 0 7 0;
#X connect 2 0 14 0;
#X connect 3 0 1 0;
#X connect 3 0 8 0;
#X connect 4 0 1 1;
#X connect 4 1 5 0;
#X connect 6 0 12 0;
#X connect 7 0 13 0;
#X connect 8 0 10 0;
#X connect 9 0 10 1;
#X connect 10 0 11 0;
#X connect 12 0 9 0;
#X connect 13 0 5 0;
#X connect 13 1 6 0;
#X connect 14 0 15 0;
#X connect 14 0 16 0;
#X connect 15 0 4 0;
#X connect 16 0 8 1;
#X restore 871 122 pd page_selection;
#X obj 694 562 r page_select;
#X text 544 738 Page 0 (red);
#X text 766 739 Page 1 (yellow);
#X obj 216 437 route 0 1;
#X obj 516 436 route 0 1;
#X obj 864 436 route 0 1;
#X obj 1135 434 route 0 1;
#X obj 694 587 sel 0 1;
#X text 222 118 Page 0 : 1:Transpose \, 2:Velocity \, 3:Amp Decay \,
4:Reverb, f 61;
#X text 221 134 Page 1 : 1:Vibrato \, 2:Mod Freq \, 3:Mod Depth \,
4:Mod Decay, f 61;
#X msg 714 638 \; screenLine1 1: Vibrato \; screenLine2 2: Mod Frequency
\; screenLine3 3: Mod Depth \; screenLine4 4: Mod Decay \; screenLine5
Aux: Go to Main page 1 \;;
#X msg 490 638 \; screenLine1 1: Transpose \; screenLine2 2: Velocity
\; screenLine3 3: Amp Decay \; screenLine4 4: Reverb \; screenLine5
Aux: Go to Mod page 2 \;;
#X connect 0 0 35 0;
#X connect 1 0 2 0;
#X connect 2 0 40 0;
#X connect 3 0 4 0;
#X connect 4 0 41 0;
#X connect 5 0 34 0;
#X connect 6 0 7 0;
#X connect 7 0 42 0;
#X connect 8 0 9 0;
#X connect 9 0 43 0;
#X connect 10 0 33 0;
#X connect 11 0 18 0;
#X connect 12 0 1 1;
#X connect 13 0 3 1;
#X connect 14 0 6 1;
#X connect 15 0 8 1;
#X connect 18 0 8 0;
#X connect 33 0 6 0;
#X connect 34 0 3 0;
#X connect 35 0 1 0;
#X connect 37 0 44 0;
#X connect 40 0 19 0;
#X connect 40 1 20 0;
#X connect 41 0 23 0;
#X connect 41 1 24 0;
#X connect 42 0 25 0;
#X connect 42 1 26 0;
#X connect 43 0 31 0;
#X connect 43 1 32 0;
#X connect 44 0 48 0;
#X connect 44 1 47 0;
#X restore 358 -295 pd organelle_knobs_screen;
#X text 280 -260 Page 0 : 1:Transpose \, 2:Velocity \, 3:Amp Decay
\, 4:Reverb, f 61;
#X text 279 -244 Page 1 : 1:Vibrato \, 2:Mod Freq \, 3:Mod Depth \,
4:Mod Decay, f 61;
#N canvas 256 81 975 753 screen_transpose 0;
#X obj 39 33 inlet;
#X obj 39 498 spigot;
#X obj 173 172 r page_select;
#X obj 173 283 change;
#X msg 207 249 0;
#X obj 173 221 delay 10;
#X msg 173 249 1;
#X obj 173 308 t b f;
#X obj 173 198 sel 0;
#X text 221 198 page 0;
#X obj 39 421 f;
#X obj 39 376 t b f;
#X obj 61 93 s param;
#X text 118 89 Sends value to array \, which can then be saved as a
preset;
#X msg 39 450 1: Transpose \$1;
#X obj 39 530 s screenLine1;
#X text 99 66 Second number is index (1);
#X obj 39 200 int;
#X obj 39 152 * 48;
#X obj 39 176 - 24;
#X msg 61 65 \$1 1;
#X connect 0 0 20 0;
#X connect 0 0 18 0;
#X connect 1 0 15 0;
#X connect 2 0 8 0;
#X connect 3 0 7 0;
#X connect 4 0 3 0;
#X connect 5 0 6 0;
#X connect 6 0 3 0;
#X connect 7 0 10 0;
#X connect 7 1 1 1;
#X connect 8 0 5 0;
#X connect 8 1 4 0;
#X connect 10 0 14 0;
#X connect 11 0 10 0;
#X connect 11 1 10 1;
#X connect 14 0 1 0;
#X connect 17 0 11 0;
#X connect 18 0 19 0;
#X connect 19 0 17 0;
#X connect 20 0 12 0;
#X restore 318 -171 pd screen_transpose;
#X obj 318 -203 r p0_k1;
#X obj 318 -143 r p0_k2;
#N canvas 256 81 975 753 screen_velocity 0;
#X obj 39 33 inlet;
#X obj 39 498 spigot;
#X obj 173 172 r page_select;
#X obj 173 283 change;
#X msg 207 249 0;
#X obj 173 221 delay 10;
#X msg 173 249 1;
#X obj 173 308 t b f;
#X obj 173 198 sel 0;
#X text 221 198 page 0;
#X obj 39 421 f;
#X obj 39 376 t b f;
#X obj 61 93 s param;
#X text 118 89 Sends value to array \, which can then be saved as a
preset;
#X obj 39 152 * 100;
#X msg 61 65 \$1 2;
#X text 99 66 Second number is index (2);
#X msg 39 450 2: Velocity \$1;
#X obj 39 530 s screenLine2;
#X obj 39 194 int;
#X connect 0 0 15 0;
#X connect 0 0 14 0;
#X connect 1 0 18 0;
#X connect 2 0 8 0;
#X connect 3 0 7 0;
#X connect 4 0 3 0;
#X connect 5 0 6 0;
#X connect 6 0 3 0;
#X connect 7 0 10 0;
#X connect 7 1 1 1;
#X connect 8 0 5 0;
#X connect 8 1 4 0;
#X connect 10 0 17 0;
#X connect 11 0 10 0;
#X connect 11 1 10 1;
#X connect 14 0 19 0;
#X connect 15 0 12 0;
#X connect 17 0 1 0;
#X connect 19 0 11 0;
#X restore 318 -111 pd screen_velocity;
#X obj 318 -83 r p0_k3;
#N canvas 256 81 975 753 screen_ampdecay 0;
#X obj 39 33 inlet;
#X obj 39 498 spigot;
#X obj 173 172 r page_select;
#X obj 173 283 change;
#X msg 207 249 0;
#X obj 173 221 delay 10;
#X msg 173 249 1;
#X obj 173 308 t b f;
#X obj 173 198 sel 0;
#X text 221 198 page 0;
#X obj 39 421 f;
#X obj 39 376 t b f;
#X obj 61 93 s param;
#X text 118 89 Sends value to array \, which can then be saved as a
preset;
#X obj 39 152 * 100;
#X msg 61 65 \$1 3;
#X text 99 66 Second number is index (3);
#X msg 39 450 3: Amp Decay \$1;
#X obj 39 530 s screenLine3;
#X obj 39 221 int;
#X connect 0 0 15 0;
#X connect 0 0 14 0;
#X connect 1 0 18 0;
#X connect 2 0 8 0;
#X connect 3 0 7 0;
#X connect 4 0 3 0;
#X connect 5 0 6 0;
#X connect 6 0 3 0;
#X connect 7 0 10 0;
#X connect 7 1 1 1;
#X connect 8 0 5 0;
#X connect 8 1 4 0;
#X connect 10 0 17 0;
#X connect 11 0 10 0;
#X connect 11 1 10 1;
#X connect 14 0 19 0;
#X connect 15 0 12 0;
#X connect 17 0 1 0;
#X connect 19 0 11 0;
#X restore 318 -51 pd screen_ampdecay;
#X obj 318 -23 r p0_k4;
#N canvas 256 81 975 753 screen_reverb 0;
#X obj 39 33 inlet;
#X obj 39 498 spigot;
#X obj 173 172 r page_select;
#X obj 173 283 change;
#X msg 207 249 0;
#X obj 173 221 delay 10;
#X msg 173 249 1;
#X obj 173 308 t b f;
#X obj 173 198 sel 0;
#X text 221 198 page 0;
#X obj 39 421 f;
#X obj 39 376 t b f;
#X obj 61 93 s param;
#X text 118 89 Sends value to array \, which can then be saved as a
preset;
#X obj 39 152 * 100;
#X msg 61 65 \$1 4;
#X text 99 66 Second number is index (4);
#X msg 39 450 4: Reverb \$1;
#X obj 39 530 s screenLine4;
#X obj 39 258 int;
#X connect 0 0 15 0;
#X connect 0 0 14 0;
#X connect 1 0 18 0;
#X connect 2 0 8 0;
#X connect 3 0 7 0;
#X connect 4 0 3 0;
#X connect 5 0 6 0;
#X connect 6 0 3 0;
#X connect 7 0 10 0;
#X connect 7 1 1 1;
#X connect 8 0 5 0;
#X connect 8 1 4 0;
#X connect 10 0 17 0;
#X connect 11 0 10 0;
#X connect 11 1 10 1;
#X connect 14 0 19 0;
#X connect 15 0 12 0;
#X connect 17 0 1 0;
#X connect 19 0 11 0;
#X restore 318 9 pd screen_reverb;
#X obj 488 -204 r p1_k1;
#X obj 488 -143 r p1_k2;
#X obj 488 -83 r p1_k3;
#X obj 488 -23 r p1_k4;
#N canvas 256 81 975 753 screen_vibrato 0;
#X obj 39 33 inlet;
#X obj 39 498 spigot;
#X obj 173 172 r page_select;
#X obj 173 283 change;
#X msg 207 249 0;
#X obj 173 221 delay 10;
#X msg 173 249 1;
#X obj 173 308 t b f;
#X obj 39 421 f;
#X obj 39 376 t b f;
#X obj 61 93 s param;
#X text 118 89 Sends value to array \, which can then be saved as a
preset;
#X obj 39 530 s screenLine1;
#X text 99 66 Second number is index (1);
#X obj 39 200 int;
#X msg 61 65 \$1 1;
#X obj 173 198 sel 1;
#X text 221 198 page 1;
#X obj 39 152 * 100;
#X msg 39 450 1: Vibrato \$1;
#X connect 0 0 15 0;
#X connect 0 0 18 0;
#X connect 1 0 12 0;
#X connect 2 0 16 0;
#X connect 3 0 7 0;
#X connect 4 0 3 0;
#X connect 5 0 6 0;
#X connect 6 0 3 0;
#X connect 7 0 8 0;
#X connect 7 1 1 1;
#X connect 8 0 19 0;
#X connect 9 0 8 0;
#X connect 9 1 8 1;
#X connect 14 0 9 0;
#X connect 15 0 10 0;
#X connect 16 0 5 0;
#X connect 16 1 4 0;
#X connect 18 0 14 0;
#X connect 19 0 1 0;
#X restore 488 -171 pd screen_vibrato;
#N canvas 256 81 975 753 screen_modfreq 0;
#X obj 39 33 inlet;
#X obj 39 498 spigot;
#X obj 173 172 r page_select;
#X obj 173 283 change;
#X msg 207 249 0;
#X obj 173 221 delay 10;
#X msg 173 249 1;
#X obj 173 308 t b f;
#X obj 39 421 f;
#X obj 39 376 t b f;
#X obj 61 93 s param;
#X text 118 89 Sends value to array \, which can then be saved as a
preset;
#X obj 39 152 * 100;
#X msg 61 65 \$1 2;
#X text 99 66 Second number is index (2);
#X obj 39 530 s screenLine2;
#X obj 39 207 int;
#X obj 173 198 sel 1;
#X text 221 198 page 1;
#X msg 39 450 2: Mod Freq \$1;
#X connect 0 0 13 0;
#X connect 0 0 12 0;
#X connect 1 0 15 0;
#X connect 2 0 17 0;
#X connect 3 0 7 0;
#X connect 4 0 3 0;
#X connect 5 0 6 0;
#X connect 6 0 3 0;
#X connect 7 0 8 0;
#X connect 7 1 1 1;
#X connect 8 0 19 0;
#X connect 9 0 8 0;
#X connect 9 1 8 1;
#X connect 12 0 16 0;
#X connect 13 0 10 0;
#X connect 16 0 9 0;
#X connect 17 0 5 0;
#X connect 17 1 4 0;
#X connect 19 0 1 0;
#X restore 488 -111 pd screen_modfreq;
#N canvas 256 81 975 753 screen_moddepth 0;
#X obj 39 33 inlet;
#X obj 39 498 spigot;
#X obj 173 172 r page_select;
#X obj 173 283 change;
#X msg 207 249 0;
#X obj 173 221 delay 10;
#X msg 173 249 1;
#X obj 173 308 t b f;
#X obj 39 421 f;
#X obj 39 376 t b f;
#X obj 61 93 s param;
#X text 118 89 Sends value to array \, which can then be saved as a
preset;
#X obj 39 152 * 100;
#X msg 61 65 \$1 3;
#X text 99 66 Second number is index (3);
#X obj 39 530 s screenLine3;
#X obj 39 214 int;
#X obj 173 198 sel 1;
#X text 221 198 page 1;
#X msg 39 450 3: Mod Depth \$1;
#X connect 0 0 13 0;
#X connect 0 0 12 0;
#X connect 1 0 15 0;
#X connect 2 0 17 0;
#X connect 3 0 7 0;
#X connect 4 0 3 0;
#X connect 5 0 6 0;
#X connect 6 0 3 0;
#X connect 7 0 8 0;
#X connect 7 1 1 1;
#X connect 8 0 19 0;
#X connect 9 0 8 0;
#X connect 9 1 8 1;
#X connect 12 0 16 0;
#X connect 13 0 10 0;
#X connect 16 0 9 0;
#X connect 17 0 5 0;
#X connect 17 1 4 0;
#X connect 19 0 1 0;
#X restore 488 -51 pd screen_moddepth;
#N canvas 256 81 975 753 screen_moddecay 0;
#X obj 39 33 inlet;
#X obj 39 498 spigot;
#X obj 173 172 r page_select;
#X obj 173 283 change;
#X msg 207 249 0;
#X obj 173 221 delay 10;
#X msg 173 249 1;
#X obj 173 308 t b f;
#X obj 39 421 f;
#X obj 39 376 t b f;
#X obj 61 93 s param;
#X text 118 89 Sends value to array \, which can then be saved as a
preset;
#X obj 39 152 * 100;
#X msg 61 65 \$1 4;
#X text 99 66 Second number is index (4);
#X obj 39 530 s screenLine4;
#X obj 39 229 int;
#X obj 173 198 sel 1;
#X text 221 198 page 1;
#X msg 39 450 4: Mod Decay \$1;
#X connect 0 0 13 0;
#X connect 0 0 12 0;
#X connect 1 0 15 0;
#X connect 2 0 17 0;
#X connect 3 0 7 0;
#X connect 4 0 3 0;
#X connect 5 0 6 0;
#X connect 6 0 3 0;
#X connect 7 0 8 0;
#X connect 7 1 1 1;
#X connect 8 0 19 0;
#X connect 9 0 8 0;
#X connect 9 1 8 1;
#X connect 12 0 16 0;
#X connect 13 0 10 0;
#X connect 16 0 9 0;
#X connect 17 0 5 0;
#X connect 17 1 4 0;
#X connect 19 0 1 0;
#X restore 488 9 pd screen_moddecay;
#X obj 79 404 reverb_mix, f 13;
#X obj 79 374 crusty_dac;
#X obj 131 173 voice;
#X obj 112 200 voice;
#X obj 93 227 voice;
#X obj 75 256 voice;
#X connect 0 0 1 0;
#X connect 1 0 2 0;
#X connect 1 1 2 1;
#X connect 1 2 2 2;
#X connect 2 0 3 0;
#X connect 3 0 31 0;
#X connect 3 1 30 0;
#X connect 3 2 29 0;
#X connect 3 3 28 0;
#X connect 4 0 27 0;
#X connect 11 0 10 0;
#X connect 11 0 28 1;
#X connect 11 0 29 1;
#X connect 11 0 30 1;
#X connect 11 0 31 1;
#X connect 12 0 13 0;
#X connect 12 0 28 2;
#X connect 12 0 29 2;
#X connect 12 0 30 2;
#X connect 12 0 31 2;
#X connect 14 0 15 0;
#X connect 14 0 28 3;
#X connect 14 0 29 3;
#X connect 14 0 30 3;
#X connect 14 0 31 3;
#X connect 16 0 17 0;
#X connect 16 0 26 1;
#X connect 18 0 22 0;
#X connect 18 0 28 4;
#X connect 18 0 29 4;
#X connect 18 0 30 4;
#X connect 18 0 31 4;
#X connect 19 0 23 0;
#X connect 19 0 28 5;
#X connect 19 0 29 5;
#X connect 19 0 30 5;
#X connect 19 0 31 5;
#X connect 20 0 24 0;
#X connect 20 0 28 6;
#X connect 20 0 29 6;
#X connect 20 0 30 6;
#X connect 20 0 31 6;
#X connect 21 0 25 0;
#X connect 21 0 28 7;
#X connect 21 0 29 7;
#X connect 21 0 30 7;
#X connect 21 0 31 7;
#X connect 26 0 5 0;
#X connect 26 1 6 0;
#X connect 27 0 26 0;
#X connect 28 0 4 0;
#X connect 29 0 4 0;
#X connect 30 0 4 0;
#X connect 31 0 4 0;
