#N canvas 127 161 681 586 10;
#X obj 109 291 +~;
#X obj 109 235 *~;
#X obj 41 153 -~;
#X msg 41 98 1;
#X obj 41 75 loadbang;
#X obj 181 246 *~;
#X obj 109 318 outlet~;
#X obj 227 245 *~;
#X obj 176 292 +~;
#X obj 176 318 outlet~;
#X obj 279 149 rev2~ 100 99 3000 50;
#X text 185 17 reverb;
#X obj 123 16 inlet~;
#X obj 269 16 inlet;
#X obj 269 53 * 50;
#X obj 269 79 + 49;
#X connect 0 0 6 0;
#X connect 1 0 0 0;
#X connect 1 0 8 0;
#X connect 2 0 1 0;
#X connect 3 0 2 0;
#X connect 4 0 3 0;
#X connect 5 0 0 1;
#X connect 7 0 8 1;
#X connect 8 0 9 0;
#X connect 10 0 5 1;
#X connect 10 1 7 1;
#X connect 12 0 1 1;
#X connect 12 0 10 0;
#X connect 13 0 14 0;
#X connect 13 0 5 0;
#X connect 13 0 7 0;
#X connect 13 0 2 1;
#X connect 14 0 15 0;
#X connect 15 0 10 2;
