#N canvas 240 142 1122 665 10;
#X obj 116 480 osc~;
#X obj 101 253 osc~;
#X obj 116 459 +~;
#X obj 131 333 *~;
#X obj 35 225 sig~;
#X obj 35 198 mtof;
#X obj 117 544 *~;
#X obj 8 7 inlet;
#X obj 792 125 inlet;
#X obj 837 125 inlet;
#X obj 893 125 inlet;
#X obj 146 311 r moddep;
#X obj 793 276 s modf;
#X obj 116 192 r modf;
#X obj 837 276 s moddep;
#X obj 544 125 inlet;
#X obj 35 174 +;
#X obj 101 225 *;
#X obj 544 206 int;
#X obj 544 158 * 48;
#X obj 544 182 - 24;
#X obj 792 155 * 63;
#X obj 792 179 + 1;
#X obj 792 203 / 8;
#X obj 837 153 * 4000;
#X obj 341 252 delay 10;
#X obj 307 415 line~;
#X msg 305 253 1 5;
#X obj 341 312 pack 0 0;
#X obj 893 224 *;
#X obj 893 193 * 50;
#X obj 265 147 bang;
#X obj 242 235 delay 10;
#X obj 204 339 line~;
#X obj 238 123 sel 0;
#X msg 206 235 1 5;
#X obj 242 295 pack 0 0;
#X obj 131 363 *~;
#X obj 675 125 inlet;
#X obj 675 224 *;
#X obj 675 193 * 50;
#X obj 893 276 s mdecay;
#X obj 675 276 s adecay;
#X obj 347 283 r adecay;
#X obj 248 267 r mdecay;
#X obj 146 412 *~;
#X obj 131 437 +~;
#X obj 731 125 inlet;
#X obj 731 276 s vibrato;
#X obj 731 192 * 20;
#X obj 191 385 r vibrato;
#X obj 146 385 osc~ 5;
#X obj 66 86 > 0;
#X obj 8 125 *;
#X obj 8 149 sel 0;
#X obj 307 445 *~;
#X obj 323 147 / 127;
#X obj 101 282 *~;
#X obj 348 199 s velamp;
#X obj 351 415 r velamp;
#X obj 135 226 r velamp;
#X obj 135 254 + 1;
#X obj 348 178 max;
#X obj 618 125 inlet;
#X obj 618 158 * -1;
#X obj 618 182 + 1;
#X obj 187 432 noise~;
#X obj 187 452 lop~ 500;
#X obj 117 515 +~;
#X text 307 119 velocity to amplitude;
#X text 311 228 amp envelope;
#X text 219 210 mod envolope;
#X text 112 167 modulator;
#X text 60 480 carrier;
#X obj 187 472 *~ 0.05;
#X text 161 364 vibrato;
#X obj 545 276 s transpose;
#X obj 50 145 r transpose;
#X obj 619 276 s velmod;
#X obj 363 147 r velmod;
#X obj 117 603 outlet~;
#X obj 8 45 unpack 0 0;
#X obj 728 331 loadbang;
#X obj 791 435 s modf;
#X obj 835 435 s moddep;
#X obj 891 435 s mdecay;
#X obj 673 435 s adecay;
#X obj 729 435 s vibrato;
#X obj 543 435 s transpose;
#X obj 617 435 s velmod;
#X msg 543 397 0;
#X msg 617 397 0;
#X msg 728 397 0;
#X msg 835 397 0;
#X msg 791 397 0.25;
#X msg 891 397 0;
#X msg 673 397 1000;
#X connect 0 0 68 0;
#X connect 1 0 57 0;
#X connect 2 0 0 0;
#X connect 3 0 37 0;
#X connect 4 0 2 0;
#X connect 5 0 4 0;
#X connect 5 0 17 0;
#X connect 6 0 80 0;
#X connect 7 0 81 0;
#X connect 8 0 21 0;
#X connect 9 0 24 0;
#X connect 10 0 30 0;
#X connect 11 0 3 1;
#X connect 13 0 17 1;
#X connect 15 0 19 0;
#X connect 16 0 5 0;
#X connect 17 0 1 0;
#X connect 18 0 76 0;
#X connect 19 0 20 0;
#X connect 20 0 18 0;
#X connect 21 0 22 0;
#X connect 22 0 23 0;
#X connect 23 0 12 0;
#X connect 24 0 14 0;
#X connect 25 0 28 0;
#X connect 26 0 55 0;
#X connect 27 0 26 0;
#X connect 28 0 26 0;
#X connect 29 0 41 0;
#X connect 30 0 29 0;
#X connect 30 0 29 1;
#X connect 31 0 35 0;
#X connect 31 0 32 0;
#X connect 31 0 27 0;
#X connect 31 0 25 0;
#X connect 32 0 36 0;
#X connect 33 0 37 1;
#X connect 34 1 31 0;
#X connect 34 1 56 0;
#X connect 35 0 33 0;
#X connect 36 0 33 0;
#X connect 37 0 46 0;
#X connect 38 0 40 0;
#X connect 39 0 42 0;
#X connect 40 0 39 0;
#X connect 40 0 39 1;
#X connect 43 0 28 1;
#X connect 44 0 36 1;
#X connect 45 0 46 1;
#X connect 46 0 2 1;
#X connect 47 0 49 0;
#X connect 49 0 48 0;
#X connect 50 0 45 1;
#X connect 51 0 45 0;
#X connect 52 0 53 1;
#X connect 53 0 54 0;
#X connect 54 1 16 0;
#X connect 55 0 6 1;
#X connect 56 0 62 0;
#X connect 57 0 3 0;
#X connect 59 0 55 1;
#X connect 60 0 61 0;
#X connect 61 0 57 1;
#X connect 62 0 58 0;
#X connect 63 0 64 0;
#X connect 64 0 65 0;
#X connect 65 0 78 0;
#X connect 66 0 67 0;
#X connect 67 0 74 0;
#X connect 68 0 6 0;
#X connect 74 0 68 1;
#X connect 77 0 16 1;
#X connect 79 0 62 1;
#X connect 81 0 53 0;
#X connect 81 1 34 0;
#X connect 81 1 52 0;
#X connect 82 0 90 0;
#X connect 82 0 91 0;
#X connect 82 0 96 0;
#X connect 82 0 92 0;
#X connect 82 0 94 0;
#X connect 82 0 93 0;
#X connect 82 0 95 0;
#X connect 90 0 88 0;
#X connect 91 0 89 0;
#X connect 92 0 87 0;
#X connect 93 0 84 0;
#X connect 94 0 83 0;
#X connect 95 0 85 0;
#X connect 96 0 86 0;
